<?xml version="1.0" standalone="no"?>
<!DOCTYPE svg PUBLIC "-//W3C//DTD SVG 1.1//EN" "http://www.w3.org/Graphics/SVG/1.1/DTD/svg11.dtd" >
<svg xmlns="http://www.w3.org/2000/svg" xmlns:xlink="http://www.w3.org/1999/xlink" version="1.1">
<metadata>
Created by FontForge 20201107 at Sat Jun 27 20:49:49 2026
 By www-data
Copyright Havar Henriksen 2008
</metadata>
<defs>
<font id="antique" horiz-adv-x="2304" >
  <font-face 
    font-family="antique"
    font-weight="400"
    font-stretch="normal"
    units-per-em="2048"
    panose-1="0 0 4 0 0 0 0 0 0 0"
    ascent="1638"
    descent="-410"
    x-height="1792"
    cap-height="2560"
    bbox="0 -512 2560 2816"
    underline-thickness="204"
    underline-position="307"
    unicode-range="U+0020-201D"
  />
<missing-glyph horiz-adv-x="2420" 
d="M2023 102h-1882l942 1266zM102 141v2534l942 -1266zM2064 141l-942 1268l942 1266v-2534zM1083 1448l-942 1266h1882zM0 0h2167v2816h-2167v-2816z" />
    <glyph glyph-name=".notdef" horiz-adv-x="2420" 
d="M2023 102h-1882l942 1266zM102 141v2534l942 -1266zM2064 141l-942 1268l942 1266v-2534zM1083 1448l-942 1266h1882zM0 0h2167v2816h-2167v-2816z" />
    <glyph glyph-name=".null" horiz-adv-x="0" 
 />
    <glyph glyph-name="nonmarkingreturn" horiz-adv-x="682" 
 />
    <glyph glyph-name="space" unicode=" " 
 />
    <glyph glyph-name="exclam" unicode="!" 
d="M1024 0h512v512h-512v-512zM1024 1024h512v1536h-512v-1536z" />
    <glyph glyph-name="quotedbl" unicode="&#x22;" 
d="M768 1792h256v256h-256v-256zM1536 1792h256v256h-256v-256zM512 2048h256v256h256v256h-512v-512zM1792 2048h256v512h-512v-256h256v-256z" />
    <glyph glyph-name="numbersign" unicode="#" 
d="M1024 1024h-256v768h256v-768zM256 0h512v768h256v-768h512v768h256v256h-256v768h256v256h-256v768h-512v-768h-256v768h-512v-768h-256v-256h256v-768h-256v-256h256v-768z" />
    <glyph glyph-name="dollar" unicode="$" 
d="M0 256h256v256h-256v-256zM1280 256h-256v512h256v-512zM768 1792h-256v512h256v-512zM1536 2048h256v256h-256v-256zM768 -256h256v256h512v256h256v1024h-256v256h-512v768h512v256h-512v256h-256v-256h-512v-256h-256v-768h256v-256h256v-256h256v-768h-512v-256h512
v-256z" />
    <glyph glyph-name="percent" unicode="%" 
d="M1024 0h512v512h-512v-512zM256 1792h512v512h-512v-512zM0 0h256v256h256v256h256v256h256v256h256v256h256v256h256v768h-256v-256h-256v-256h-256v-256h-256v-256h-256v-256h-256v-256h-256v-768z" />
    <glyph glyph-name="ampersand" unicode="&#x26;" 
d="M1280 0h512v256h-256v256h-256v-512zM1024 512h256v256h-256v-256zM1280 768h256v256h-256v-256zM1536 1024h256v256h-256v-256zM256 0h768v512h-256v-256h-256v768h256v-256h256v768h256v768h-256v-256h-256v-256h-256v-256h-256v-256h-256v-1024h256v-256zM256 1792
h256v256h256v256h256v256h-512v-256h-256v-512z" />
    <glyph glyph-name="quotesingle" unicode="'" 
d="M1536 1792h256v256h-256v-256zM1792 2048h256v512h-512v-256h256v-256z" />
    <glyph glyph-name="asterisk" unicode="*" 
d="M1024 1280h-256v256h256v-256zM0 512h512v256h256v-256h256v256h256v-256h512v512h-256v256h256v256h-256v256h256v512h-512v-256h-256v256h-256v-256h-256v256h-512v-512h256v-256h-256v-256h256v-256h-256v-512z" />
    <glyph glyph-name="comma" unicode="," 
d="M1024 -512h256v256h-256v-256zM1280 -256h256v256h256v512h-768v-512h256v-256z" />
    <glyph glyph-name="period" unicode="." 
d="M1536 0h512v512h-512v-512z" />
    <glyph glyph-name="zero" unicode="0" 
d="M768 0h768v256h-512v768h256v256h-256v768h-256v-256h-256v-1536h256v-256zM1536 256h256v256h256v1536h-256v256h-768v-256h512v-512h-256v-256h256v-1024z" />
    <glyph glyph-name="one" unicode="1" 
d="M512 0h1536v256h-512v2048h-512v-256h-256v-256h-256v-256h512v-1280h-512v-256z" />
    <glyph glyph-name="two" unicode="2" 
d="M512 1792h512v256h-256v256h-256v-512zM512 0h1536v768h-256v-256h-768v256h256v256h256v256h256v256h256v768h-256v256h-1024v-256h768v-768h-256v-256h-256v-256h-256v-256h-256v-768z" />
    <glyph glyph-name="three" unicode="3" 
d="M768 0h1024v256h256v1024h-256v256h256v768h-256v256h-1024v-256h-256v-512h512v512h512v-768h-768v-256h768v-1024h-512v512h-512v-512h256v-256z" />
    <glyph glyph-name="four" unicode="4" 
d="M512 1280h256v256h-256v-256zM768 1536h256v256h-256v-256zM1024 0h1024v256h-256v512h256v256h-256v1536h-256v-256h-256v-256h-256v-256h256v-768h-768v256h-256v-256h-256v-256h1280v-512h-256v-256z" />
    <glyph glyph-name="five" unicode="5" 
d="M512 256h256v256h256v256h-512v-512zM768 0h1024v256h256v1280h-256v256h-768v-256h512v-1280h-768v-256zM512 1024h256v256h256v256h-256v512h1280v512h-1536v-1536z" />
    <glyph glyph-name="six" unicode="6" 
d="M1536 256h-512v1024h512v-1024zM768 0h1024v256h256v1024h-256v256h-768v768h-256v-256h-256v-1792h256v-256zM1536 1792h512v512h-256v256h-768v-256h512v-512z" />
    <glyph glyph-name="seven" unicode="7" 
d="M768 0h512v1024h256v256h256v256h256v1024h-1536v-768h256v256h1024v-256h-256v-256h-256v-256h-256v-256h-256v-1024z" />
    <glyph glyph-name="eight" unicode="8" 
d="M768 0h1024v256h256v1024h-256v512h-256v-256h-256v256h-256v512h512v-256h256v-256h256v512h-256v256h-1024v-256h-256v-768h256v-512h256v256h256v-256h256v-768h-512v256h-256v512h-256v-768h256v-256z" />
    <glyph glyph-name="nine" unicode="9" 
d="M768 0h768v256h-512v512h-512v-512h256v-256zM1536 1280h-512v1024h512v-1024zM1536 256h256v256h256v1792h-256v256h-1024v-256h-256v-1024h256v-256h768v-768z" />
    <glyph glyph-name="question" unicode="?" 
d="M512 0h512v512h-512v-512zM512 768h512v256h256v256h256v256h256v768h-256v256h-1280v-256h-256v-512h256v256h256v256h768v-768h-256v-256h-256v-256h-256v-256z" />
    <glyph glyph-name="at" unicode="@" 
d="M1536 256h256v256h-256v-256zM256 0h1280v256h-1024v256h-256v1536h-256v-1792h256v-256zM256 2048h256v256h-256v-256zM768 768h768v256h256v1280h-256v256h-1024v-256h768v-256h256v-256h-256v-256h256v-256h-256v-256h-256v256h256v256h-256v256h256v256h-512v-256
h-256v-768h256v-256z" />
    <glyph glyph-name="A" unicode="A" 
d="M0 0h768v256h-256v512h-256v-512h-256v-256zM768 1280h256v512h-256v-512zM1024 0h1024v256h-256v2304h-512v-256h-256v-512h256v-768h-512v256h-256v-512h768v-512h-256v-256z" />
    <glyph glyph-name="B" unicode="B" 
d="M1280 256h-768v1024h768v-256h256v-512h-256v-256zM1280 1536h-768v768h768v-256h256v-256h-256v-256zM0 0h1536v256h256v1024h-256v256h256v768h-256v256h-1536v-256h256v-2048h-256v-256z" />
    <glyph glyph-name="C" unicode="C" 
d="M256 0h1280v256h256v512h-256v-256h-256v-256h-512v256h-256v1792h-256v-256h-256v-1792h256v-256zM1536 1792h256v768h-1280v-256h768v-256h256v-256z" />
    <glyph glyph-name="D" unicode="D" 
d="M0 0h1280v256h-512v2048h256v-256h256v-1792h256v256h256v1792h-256v256h-1536v-256h256v-2048h-256v-256z" />
    <glyph glyph-name="E" unicode="E" 
d="M0 0h1792v512h-256v-256h-768v1024h512v-256h256v768h-256v-256h-512v768h768v-256h256v512h-1792v-256h256v-2048h-256v-256z" />
    <glyph glyph-name="F" unicode="F" 
d="M0 0h1024v256h-256v1024h256v-256h256v768h-256v-256h-256v768h768v-256h256v512h-1792v-256h256v-2048h-256v-256z" />
    <glyph glyph-name="G" unicode="G" 
d="M1280 256h256v256h256v1024h-768v-256h256v-1024zM256 0h1024v256h-512v256h-256v1536h256v256h512v-256h256v-256h256v512h-256v256h-1024v-256h-256v-256h-256v-1792h256v-256z" />
    <glyph glyph-name="H" unicode="H" 
d="M0 0h768v1280h512v-1280h768v256h-256v2048h256v256h-768v-1024h-512v1024h-768v-256h256v-2048h-256v-256z" />
    <glyph glyph-name="I" unicode="I" 
d="M1024 0h1024v256h-256v2048h256v256h-1024v-256h256v-2048h-256v-256z" />
    <glyph glyph-name="J" unicode="J" 
d="M256 -512h768v256h256v2560h256v256h-1024v-256h256v-2560h-256v256h-512v-256h256v-256z" />
    <glyph glyph-name="K" unicode="K" 
d="M1280 1536h256v256h-256v-256zM0 0h768v1024h256v-256h256v-768h768v256h-256v768h-256v256h-256v256h-256v-256h-256v1280h-768v-256h256v-2048h-256v-256zM1536 1792h256v512h256v256h-768v-256h256v-512z" />
    <glyph glyph-name="L" unicode="L" 
d="M0 0h1792v512h-256v-256h-768v2048h256v256h-1024v-256h256v-2048h-256v-256z" />
    <glyph glyph-name="M" unicode="M" 
d="M0 0h768v256h-256v1024h256v-256h256v256h256v-1024h-256v-256h1024v256h-256v2048h256v256h-768v-768h-256v256h-256v512h-768v-256h256v-2048h-256v-256z" />
    <glyph glyph-name="N" unicode="N" 
d="M0 0h768v256h-256v1280h256v-512h256v-512h256v-512h512v2304h256v256h-768v-256h256v-1280h-256v512h-256v512h-256v512h-768v-256h256v-2048h-256v-256z" />
    <glyph glyph-name="O" unicode="O" 
d="M256 0h1024v256h-512v256h-256v1792h-256v-256h-256v-1792h256v-256zM1280 256h256v256h256v1792h-256v256h-1024v-256h512v-256h256v-1792z" />
    <glyph glyph-name="P" unicode="P" 
d="M0 0h1024v256h-256v768h512v256h-512v1024h512v-1024h256v256h256v768h-256v256h-1536v-256h256v-2048h-256v-256z" />
    <glyph glyph-name="Q" unicode="Q" 
d="M1024 0h768v256h-512v256h-256v768h-256v-512h-256v1536h-256v-256h-256v-1536h256v-256h768v-256zM1280 512h256v256h256v1536h-256v256h-1024v-256h512v-256h256v-1536z" />
    <glyph glyph-name="R" unicode="R" 
d="M1280 0h768v256h-256v512h-256v256h-256v-1024zM1024 1280h-256v1024h512v-768h-256v-256zM0 0h768v1024h512v256h256v256h256v768h-256v256h-1536v-256h256v-2048h-256v-256z" />
    <glyph glyph-name="S" unicode="S" 
d="M0 0h256v256h256v256h-256v256h-256v-768zM512 0h1024v256h256v768h-256v256h-512v256h-256v256h-256v512h768v256h-1024v-256h-256v-768h256v-256h512v-256h256v-256h256v-256h-256v-256h-512v-256zM1536 1792h256v768h-256v-256h-256v-256h256v-256z" />
    <glyph glyph-name="T" unicode="T" 
d="M256 0h1536v256h-512v2048h256v-256h256v-256h256v768h-2048v-768h256v256h256v256h256v-2048h-512v-256z" />
    <glyph glyph-name="U" unicode="U" 
d="M512 0h1024v256h-512v256h-256v2048h-768v-256h256v-2048h256v-256zM1536 256h256v2048h256v256h-512v-2304z" />
    <glyph glyph-name="V" unicode="V" 
d="M1024 1024h256v512h-256v-512zM1280 1536h256v512h-256v-512zM256 0h512v512h256v512h-256v1536h-768v-256h256v-2304zM1536 2048h256v256h256v256h-512v-512z" />
    <glyph glyph-name="W" unicode="W" 
d="M256 0h512v512h256v-512h256v256h256v256h256v1792h256v256h-512v-1536h-256v512h-256v-512h-256v1536h-768v-256h256v-2304z" />
    <glyph glyph-name="X" unicode="X" 
d="M0 0h768v256h-256v512h-256v-512h-256v-256zM512 768h256v256h-256v-256zM1280 1536h256v256h-256v-256zM1024 0h1024v256h-256v768h-256v256h-256v256h-256v256h-256v512h256v256h-1024v-256h256v-768h256v-256h256v-256h256v-256h256v-512h-256v-256zM1536 1792h256
v512h256v256h-768v-256h256v-512z" />
    <glyph glyph-name="Y" unicode="Y" 
d="M1280 1536h256v512h-256v-512zM512 0h1024v256h-256v1280h-256v512h-256v512h-768v-256h256v-512h256v-512h256v-1024h-256v-256zM1536 2048h256v256h256v256h-512v-512z" />
    <glyph glyph-name="Z" unicode="Z" 
d="M0 0h1792v512h-256v-256h-1024v512h256v256h256v256h256v256h256v256h256v768h-1792v-512h256v256h1024v-256h-256v-256h-256v-256h-256v-256h-256v-256h-256v-1024z" />
    <glyph glyph-name="underscore" unicode="_" 
d="M512 0h1536v256h-1536v-256z" />
    <glyph glyph-name="a" unicode="a" 
d="M256 0h512v256h-256v512h256v256h-512v-256h-256v-512h256v-256zM0 1280h256v256h-256v-256zM1024 0h256v256h256v256h256v256h-256v768h-256v256h-1024v-256h768v-256h-256v-256h256v-512h-256v-256h256v-256z" />
    <glyph glyph-name="b" unicode="b" 
d="M768 0h512v256h-512v-256zM1280 256h256v256h256v1024h-256v256h-512v-256h256v-1280zM256 0h256v256h256v1024h256v256h-256v1280h-256v-256h-256v-256h-256v-256h256v-2048z" />
    <glyph glyph-name="c" unicode="c" 
d="M1536 256h256v256h-256v-256zM1792 512h256v256h-256v-256zM768 0h768v256h-512v1280h-256v-256h-256v-1024h256v-256zM1536 1280h512v256h-256v256h-768v-256h512v-256z" />
    <glyph glyph-name="d" unicode="d" 
d="M256 0h512v256h-256v1280h-256v-256h-256v-1024h256v-256zM1024 0h768v256h-256v2560h-256v-256h-256v-256h-256v-256h256v-256h-512v-256h512v-1024h-256v-256h256v-256z" />
    <glyph glyph-name="e" unicode="e" 
d="M1536 256h256v256h-256v-256zM1792 512h256v256h-256v-256zM1536 1024h256v256h-256v-256zM768 0h768v256h-512v256h256v256h256v256h-512v512h-256v-256h-256v-1024h256v-256zM1792 1280h256v256h-256v-256zM1024 1536h768v256h-768v-256z" />
    <glyph glyph-name="f" unicode="f" 
d="M512 0h1024v256h-256v1280h512v256h-512v512h-256v-256h-256v-256h-256v-256h256v-1280h-256v-256zM1536 2048h512v256h256v256h-256v256h-512v-256h-256v-256h256v-256z" />
    <glyph glyph-name="g" unicode="g" 
d="M512 -512h1024v256h-768v512h-512v-512h256v-256zM0 256h256v256h-256v-256zM1536 -256h256v768h-256v256h-256v256h-512v256h-256v256h-256v-512h256v-256h-256v-256h768v-256h256v-256h256v-256zM1280 1024h256v512h-256v256h-768v-256h512v-256h256v-256zM1536 1536
h256v512h-512v-256h256v-256z" />
    <glyph glyph-name="h" unicode="h" 
d="M1280 0h768v256h-256v1280h-256v256h-512v-256h256v-1536zM0 0h768v1280h256v256h-256v1280h-256v-256h-256v-256h-256v-256h256v-1792h-256v-256z" />
    <glyph glyph-name="i" unicode="i" 
d="M1536 0h1024v256h-256v1536h-256v-256h-256v-256h-256v-256h256v-768h-256v-256zM1792 2304h512v256h-512v-256z" />
    <glyph glyph-name="j" unicode="j" 
d="M512 -512h768v256h-256v256h-512v-512zM1280 -256h256v256h256v1792h-256v-256h-256v-256h-256v-256h256v-1280zM1280 2304h512v256h-512v-256z" />
    <glyph glyph-name="k" unicode="k" 
d="M1024 1024h256v256h-256v-256zM1280 1280h256v256h256v256h-768v-256h256v-256zM0 0h768v512h256v-512h768v256h-256v256h-256v256h-256v256h-256v1792h-256v-256h-256v-256h-256v-256h256v-1792h-256v-256z" />
    <glyph glyph-name="l" unicode="l" 
d="M1024 0h1024v256h-256v2560h-256v-256h-256v-256h-256v-256h256v-1792h-256v-256z" />
    <glyph glyph-name="m" unicode="m" 
d="M0 0h768v1280h256v-1280h256v1280h256v-1280h512v1536h-256v256h-256v-256h-256v256h-256v-256h-256v256h-256v-256h-256v-256h-256v-256h256v-768h-256v-256z" />
    <glyph glyph-name="n" unicode="n" 
d="M0 0h768v1280h256v256h-256v256h-256v-256h-256v-256h-256v-256h256v-768h-256v-256zM1280 0h768v256h-256v1280h-256v256h-512v-256h256v-1536z" />
    <glyph glyph-name="o" unicode="o" 
d="M768 0h768v256h-512v1280h-256v-256h-256v-1024h256v-256zM1536 256h256v256h256v1024h-256v256h-768v-256h512v-1280z" />
    <glyph glyph-name="p" unicode="p" 
d="M0 -512h1024v256h-256v512h512v256h-512v768h256v256h-256v256h-256v-256h-256v-256h-256v-256h256v-1280h-256v-256zM1280 512h256v256h256v768h-256v256h-512v-256h256v-1024z" />
    <glyph glyph-name="q" unicode="q" 
d="M512 1536h512v256h-512v-256zM768 -512h1024v256h-256v2048h-256v-256h-256v-1024h-512v1024h-256v-256h-256v-768h256v-256h768v-512h-256v-256z" />
    <glyph glyph-name="r" unicode="r" 
d="M0 0h1024v256h-256v1024h256v256h-512v256h-256v-256h-256v-256h256v-1024h-256v-256zM1280 1280h512v256h256v256h-256v256h-512v-256h-256v-256h256v-256z" />
    <glyph glyph-name="s" unicode="s" 
d="M1024 0h1024v256h256v512h-256v256h-256v256h-256v256h512v-256h256v512h-1024v-256h-256v-512h256v-256h256v-256h256v-256h-512v256h-256v-512z" />
    <glyph glyph-name="t" unicode="t" 
d="M1536 256h256v256h-256v-256zM1792 512h256v256h-256v-256zM1024 0h512v256h-256v1280h768v256h-768v512h-256v-256h-256v-256h-256v-256h256v-1280h256v-256z" />
    <glyph glyph-name="u" unicode="u" 
d="M512 0h512v256h-256v1536h-768v-256h256v-1280h256v-256zM1280 0h256v256h256v256h256v256h-256v1024h-768v-256h256v-1024h-256v-256h256v-256z" />
    <glyph glyph-name="v" unicode="v" 
d="M1024 768h256v512h-256v-512zM256 0h512v256h256v512h-256v1024h-768v-256h256v-1536zM1280 1280h256v256h256v256h-512v-512z" />
    <glyph glyph-name="w" unicode="w" 
d="M256 0h256v256h256v256h256v-512h256v256h256v256h256v1024h256v256h-512v-768h-256v256h-256v-512h-256v1024h-768v-256h256v-1536z" />
    <glyph glyph-name="x" unicode="x" 
d="M0 0h768v256h-256v256h-256v-256h-256v-256zM1024 0h768v256h-256v256h-256v768h-512v512h-768v-256h256v-256h256v-768h512v-512zM1280 1280h256v256h256v256h-768v-256h256v-256z" />
    <glyph glyph-name="y" unicode="y" 
d="M256 -512h512v256h256v512h-256v-256h-512v-512zM1024 256h256v256h256v512h256v512h256v256h-512v-512h-256v-256h-256v256h-256v256h256v256h-1024v-256h256v-256h256v-512h256v-256h256v-256z" />
    <glyph glyph-name="z" unicode="z" 
d="M512 0h1536v512h-256v-256h-768v256h256v256h256v256h256v256h256v512h-1536v-512h256v256h768v-256h-256v-256h-256v-256h-256v-256h-256v-512z" />
    <glyph glyph-name="quoteleft" unicode="&#x2018;" 
d="M1024 1280h512v256h-256v256h-256v-512zM1280 1792h256v256h-256v-256z" />
    <glyph glyph-name="quoteright" unicode="&#x2019;" 
d="M1536 1792h256v256h-256v-256zM1792 2048h256v512h-512v-256h256v-256z" />
    <glyph glyph-name="quotedblleft" unicode="&#x201c;" 
d="M768 1792h256v256h-256v-256zM1536 1792h256v256h-256v-256zM512 2048h256v256h256v256h-512v-512zM1792 2048h256v512h-512v-256h256v-256z" />
    <glyph glyph-name="quotedblright" unicode="&#x201d;" 
d="M768 1792h256v256h-256v-256zM1536 1792h256v256h-256v-256zM512 2048h256v256h256v256h-512v-512zM1792 2048h256v512h-512v-256h256v-256z" />
  </font>
</defs>
</svg>
